<?xml version="1.0" standalone="no"?>
<!DOCTYPE svg PUBLIC "-//W3C//DTD SVG 20010904//EN"
 "http://www.w3.org/TR/2001/REC-SVG-20010904/DTD/svg10.dtd">
<svg version="1.0" xmlns="http://www.w3.org/2000/svg"
 width="700.000000pt" height="700.000000pt" viewBox="0 0 700.000000 700.000000"
 preserveAspectRatio="xMidYMid meet">
<metadata>
Created by potrace 1.14, written by Peter Selinger 2001-2017
</metadata>
<g transform="translate(0.000000,700.000000) scale(0.100000,-0.100000)"
fill="#000000" stroke="none">
<path d="M3438 6409 c-44 -10 -684 -330 -713 -356 -159 -142 -120 -397 74
-485 52 -23 136 -30 190 -16 20 5 143 63 273 128 l238 119 253 -125 c276 -137
306 -146 407 -120 134 35 225 167 213 312 -4 52 -56 153 -97 186 -30 25 -646
338 -691 352 -39 11 -110 14 -147 5z"/>
<path d="M1670 5531 c-46 -15 -655 -323 -688 -348 -46 -34 -83 -94 -96 -155
-17 -72 -14 -826 2 -884 40 -140 196 -231 344 -199 81 18 166 87 202 165 17
39 21 68 23 204 1 87 4 161 7 163 2 2 42 -15 87 -38 95 -48 165 -67 226 -62
94 7 189 73 233 160 35 67 36 187 2 255 -28 57 -79 108 -138 139 -24 12 -44
25 -44 28 0 3 25 19 55 35 56 29 96 71 131 136 14 26 19 56 19 120 0 76 -3 91
-29 138 -31 55 -74 95 -136 127 -39 20 -159 30 -200 16z"/>
<path d="M5170 5531 c-74 -23 -144 -81 -182 -153 -32 -60 -32 -193 -1 -254 34
-64 66 -96 127 -129 31 -16 56 -33 56 -36 0 -3 -21 -16 -46 -29 -241 -124
-206 -477 54 -544 80 -21 134 -11 250 44 58 28 107 49 108 47 2 -2 5 -75 7
-163 3 -143 5 -164 27 -208 120 -248 485 -209 545 58 7 34 11 184 10 446 -1
366 -2 399 -20 450 -36 99 -75 127 -417 298 -168 84 -325 159 -348 167 -45 16
-128 19 -170 6z"/>
<path d="M2857 4369 c-151 -34 -254 -185 -226 -334 25 -131 64 -167 347 -309
l232 -116 1 -298 c0 -163 2 -304 4 -313 13 -66 67 -141 133 -183 140 -90 333
-34 415 119 21 38 22 55 25 358 l3 318 230 115 c283 141 323 177 348 307 37
199 -145 376 -344 335 -22 -5 -149 -63 -282 -129 l-242 -121 -243 121 c-134
66 -254 123 -268 126 -49 10 -96 12 -133 4z"/>
<path d="M5792 3058 c-118 -18 -202 -92 -236 -208 -12 -43 -16 -100 -15 -255
0 -110 0 -239 0 -287 l-1 -88 -229 -115 c-240 -120 -281 -149 -323 -228 -18
-34 -23 -58 -23 -127 0 -76 3 -91 29 -138 30 -54 73 -94 136 -128 26 -14 56
-19 120 -19 l85 0 329 165 c180 91 345 180 366 198 22 18 51 58 66 90 l28 57
0 430 c-1 413 -2 432 -21 476 -56 125 -182 197 -311 177z"/>
<path d="M1069 3045 c-63 -20 -132 -84 -166 -153 l-28 -57 0 -413 c0 -375 1
-420 18 -474 32 -106 65 -129 442 -318 l330 -165 85 0 c64 0 94 5 120 19 63
34 106 74 136 128 26 47 29 63 29 138 0 77 -3 90 -31 140 -17 30 -46 67 -65
82 -19 14 -134 77 -256 137 -123 61 -223 117 -223 124 0 6 -2 147 -3 312 -2
290 -3 302 -26 347 -28 58 -80 112 -134 140 -54 27 -164 34 -228 13z"/>
<path d="M3424 1885 c-86 -26 -143 -73 -186 -155 -21 -41 -23 -60 -26 -212 -2
-93 -5 -168 -7 -168 -2 0 -48 22 -103 50 -73 36 -114 51 -156 54 -148 12 -273
-74 -310 -216 -25 -98 5 -209 78 -279 25 -24 143 -89 359 -196 177 -88 331
-163 343 -167 38 -12 105 -14 147 -4 57 13 674 323 718 362 20 17 48 56 63 87
70 152 11 316 -142 391 -37 18 -62 23 -122 22 -69 -1 -83 -5 -179 -53 -57 -28
-105 -50 -107 -48 -2 1 -4 72 -5 156 -1 177 -11 218 -70 285 -72 82 -196 120
-295 91z"/>
</g>
</svg>
